# xmcd CD database file
#
# Track frame offsets:
#	150
#	32537
#	87955
#	112587
#	133337
#
# Disc length: 2169 seconds
#
# Revision: 0
# Processed by: cddbd v1.5PL3 Copyright (c) Steve Scherf et al.
# Submitted via: CDex 1.51
#
DISCID=34087705
DTITLE=Hank Jones - The Hank Jones quartet
DYEAR=1956
DGENRE=Jazz
TTITLE0=Moonlight becomes you
TTITLE1=Relaxin' at Camarillo's
TTITLE2=Minor conception
TTITLE3=Sunday in Savannah
TTITLE4=Spontaneous combustion
EXTD=YEAR: 1956
EXTT0=
EXTT1=
EXTT2=
EXTT3=
EXTT4=
PLAYORDER=
